<svg xmlns="http://www.w3.org/2000/svg" width="27.147" height="26.016" viewBox="0 0 27.147 26.016">
  <path id="line" d="M13.574.5C6.091.5,0,5.475,0,11.589c0,5.476,4.83,10.064,11.351,10.936.442.094,1.044.294,1.2.672a2.8,2.8,0,0,1,.043,1.23l-.186,1.161c-.051.343-.271,1.349,1.187.734s7.823-4.642,10.673-7.939a9.842,9.842,0,0,0,2.882-6.792C27.147,5.475,21.056.5,13.574.5ZM8.261,15.224h-2.7a.719.719,0,0,1-.713-.716V9.077a.713.713,0,1,1,1.425,0v4.713H8.261a.717.717,0,0,1,0,1.433Zm2.789-.716a.712.712,0,1,1-1.423,0V9.077a.712.712,0,1,1,1.423,0Zm6.494,0a.717.717,0,0,1-.489.679.731.731,0,0,1-.225.035.7.7,0,0,1-.577-.285L13.49,11.161v3.346a.711.711,0,1,1-1.422,0V9.077a.713.713,0,0,1,.486-.678.658.658,0,0,1,.219-.037.73.73,0,0,1,.56.29l2.785,3.79V9.077a.713.713,0,1,1,1.425,0ZM21.9,11.075a.718.718,0,0,1,0,1.435H19.919v1.28H21.9a.717.717,0,0,1,0,1.433h-2.7a.716.716,0,0,1-.709-.716V9.077a.717.717,0,0,1,.713-.717h2.7a.717.717,0,0,1,0,1.434H19.919v1.28Z" transform="translate(0 -0.5)" fill="#fff"/>
</svg>
